<svg width="114" height="88" viewBox="0 0 114 88" fill="none" xmlns="http://www.w3.org/2000/svg">
<path d="M41.3407 17.164C40.4036 17.164 39.4651 17.1347 38.5306 17.1827C38.2683 17.1961 37.7898 17.4561 37.7977 17.5774C37.8966 19.1067 36.4612 19.5601 35.8219 20.5574C35.6466 20.8321 35.934 22.5227 36.187 22.7747C37.0754 23.6627 37.9005 24.6267 38.8548 25.4361C39.8737 26.2987 41.0112 27.016 42.0973 27.7974C42.9369 28.4014 43.3099 29.7107 44.6636 29.5387C45.407 30.5414 46.4483 30.6161 47.5542 30.4907C48.258 31.6147 49.3639 31.5347 50.4434 31.4294C51.1367 31.3627 51.5374 31.7414 52.0594 32.1001C52.7896 32.6014 53.0176 31.1347 53.8915 31.4147C54.4398 31.592 55.0765 31.3294 55.5905 31.8827C55.8607 32.1721 56.4091 32.4294 56.7663 32.3601C58.5945 32.0081 59.9007 33.1707 61.2833 33.9507C62.152 34.44 62.6541 34.3534 63.2446 33.692C63.5584 33.34 63.909 33.0241 64.2345 32.6827C65.1888 31.6787 65.2745 30.3414 64.4243 29.4467C63.7758 28.7627 63.1418 28.0561 62.4274 27.4467C61.7407 26.8614 61.3769 25.784 60.3238 25.7534C59.3642 25.7254 58.9965 24.3868 57.9064 24.7401C57.8392 24.7628 57.681 24.5427 57.5822 24.4214C56.5027 23.0814 54.8076 22.7547 53.4974 21.8534C52.1569 20.932 50.8995 19.6854 49.4272 19.1774C48.2224 18.7614 47.1574 17.4934 45.6561 18.0708C44.6557 16.5441 43.1109 17.3841 41.8086 17.1681C41.6571 17.1414 41.4976 17.164 41.3407 17.164ZM1.94319 5.74139C1.97614 4.77872 1.10752 4.46539 0.592149 3.9414C-0.205292 3.12939 -0.0484458 2.20804 0.207263 1.35604C0.472198 0.472038 1.97613 -0.0959396 2.92779 0.0133972C3.83991 0.117393 4.08771 0.984085 4.7138 1.40409C4.52004 2.54675 5.42557 3.04675 6.04902 3.69341C6.57098 4.23474 7.0323 4.74272 7.93519 4.87473C8.56392 4.96539 9.18342 5.78139 9.61839 6.40806C10.2853 7.36806 11.4479 7.42274 12.2295 8.09074C13.0336 8.78008 13.711 9.5054 14.8314 9.8134C15.7804 10.0747 16.7888 10.7067 17.399 11.476C18.1385 12.4094 19.2404 12.4668 20.1077 13.0294C20.9737 13.5908 21.8832 14.0401 22.6793 14.7694C23.8774 15.8667 25.7188 15.8694 26.8827 17.1307C27.1753 17.448 28.0584 16.9721 28.2891 16.4321C28.6911 15.4907 28.8769 14.3547 29.5254 13.6521C30.1146 13.0134 29.8721 12.0494 30.485 11.6721C31.3391 11.1481 32.3382 10.8507 33.2938 10.5134C33.709 10.3667 34.2982 10.5134 34.5908 10.2641C35.5451 9.45605 36.3992 8.5267 37.2916 7.64536C39.0156 7.64536 40.745 7.56275 42.4611 7.67342C43.6632 7.75076 45.0446 7.07204 46.0423 8.0507C47.0256 9.0147 48.1131 8.38136 49.1227 8.60937C49.3955 8.6707 49.6302 8.89338 49.8911 9.02538C52.7461 10.4707 55.6064 11.9081 58.4574 13.3614C58.8502 13.5614 59.2258 13.8054 59.5738 14.0747C60.0575 14.4481 60.4793 14.9054 60.9815 15.2454C61.3348 15.484 61.8594 15.4934 62.1665 15.7681C62.9876 16.5001 63.7337 17.3188 64.5087 18.1041C65.8492 17.9148 66.3711 19.0694 67.0869 19.8081C67.7077 20.4494 68.7477 20.8467 68.7437 21.9494C68.7384 23.3987 70.249 22.5761 70.7511 23.4014C71.2309 24.1894 71.9941 24.8294 72.719 25.4267C73.4176 26.0014 73.5626 26.6961 73.4545 27.5054C73.3517 28.2787 74.2704 28.5401 74.3139 29.0321C74.4286 30.3721 74.886 31.8787 73.4598 32.9001C72.7665 36.5587 69.6229 38.3254 67.4573 40.8467C66.4015 40.6081 65.9678 41.8694 65.0715 41.8947C63.0364 41.952 60.9973 41.9134 58.9609 41.9134C57.9697 40.1494 55.8897 41.6947 54.8221 40.5934C53.7676 39.5041 51.9421 40.6321 51.1974 39.0574C49.3257 39.4227 47.9048 37.3521 45.9277 38.0574C45.697 38.1387 45.2396 37.5387 44.8692 37.2827C44.8086 37.2414 44.5859 37.3081 44.5555 37.3774C44.4409 37.6454 44.2155 38.0227 44.3143 38.2027C45.1434 39.7281 47.1693 41.4 49.1939 42.9094C50.5133 43.892 51.8643 44.8188 53.2417 45.6988C54.0009 46.1841 53.2259 47.6721 54.718 47.6774C55.3731 47.6801 56.1085 48.1534 56.6635 48.5974C58.0619 49.7134 59.554 50.644 61.1476 51.4427C62.5988 52.1694 64.2134 52.6454 65.264 54.0534C65.4024 54.2374 65.8848 54.1281 66.0825 54.3014C67.4414 55.4961 69.7099 54.9201 70.7261 56.7574C72.2933 57.5201 73.9752 58.1147 75.4014 59.0894C77.2322 60.3427 79.1302 61.4387 81.0731 62.4827C81.8942 62.9241 83.1728 62.9588 83.0331 64.4321C83.0238 64.5294 83.2756 64.7641 83.3481 64.7414C84.6886 64.3187 85.6402 65.6347 86.7237 65.6267C88.4965 65.6121 89.8291 66.4761 91.333 67.0827C92.543 67.5721 93.5 68.7241 94.9578 68.5601C95.2438 68.5267 95.5219 68.4121 95.8027 68.3348C95.742 68.1108 95.6814 67.8867 95.6208 67.6614C95.2504 66.2681 94.3093 65.2747 93.2891 64.3628C91.6757 62.9254 90.4816 61.0254 88.4992 59.9934C86.526 58.9654 85.3278 57.0507 83.7158 55.6081C83.1293 55.0841 82.4083 54.5828 82.1025 53.9068C81.7941 53.2268 81.6728 52.508 81.0783 51.9427C80.8081 51.6854 80.9663 50.884 80.6974 50.72C78.6649 49.48 79.1513 47.492 79.1052 45.6534C79.0907 45.0814 79.4017 44.7281 79.9145 44.8001C80.2928 44.8521 80.9531 45.2107 80.9386 45.3881C80.7897 47.2521 82.9882 46.4081 83.3613 47.6041C83.5827 47.3801 83.8186 47.168 84.0229 46.9281C84.2602 46.648 84.5436 46.6667 84.6728 47.092C84.8375 47.64 84.6174 48.5347 85.4096 48.5334C86.5695 48.5307 87.4829 48.7561 88.2514 49.7041C88.9434 50.5574 89.7026 51.4054 90.5844 52.0387C91.3963 52.6201 92.431 52.8747 93.326 53.3507C93.8493 53.6294 94.3356 54.0161 94.7614 54.4334C96.2231 55.8694 97.5597 57.4534 99.1295 58.7494C99.9059 59.3894 99.3707 60.8108 100.482 60.9014C101.416 60.9788 102.01 61.5134 102.307 62.1267C102.773 63.0907 103.125 64.064 104.014 64.7427C104.756 65.3094 104.408 66.5601 105.348 67.0321C105.318 68.4988 106.66 69.024 107.317 70.0174C107.812 70.764 109.175 70.0161 109.308 71.5027C109.375 72.2587 110.36 72.9388 110.945 73.6401C111.426 74.2148 111.916 74.6761 112.132 75.5361C112.334 76.3347 113.307 76.9268 113.918 77.6294C114.165 77.9121 113.671 78.7974 113.166 79.0387C112.787 79.2201 112.077 79.4548 112.093 79.6014C112.297 81.4841 110.021 80.6307 109.706 81.8761C108.662 82.0547 107.404 81.4187 106.592 82.2507C105.758 83.1027 104.87 82.7761 103.991 82.8321C102.645 82.9174 101.202 82.5321 100.15 83.7961C98.8962 83.7961 97.6427 83.7961 96.3892 83.7961C94.9775 83.7961 93.5672 83.7961 92.1568 83.7961C90.2773 85.3441 88.0497 84.6587 85.9645 84.7067C84.8336 84.7321 84.3446 86.0734 83.0515 85.7521C82.0168 85.4961 80.8701 85.7001 79.7721 85.7001C78.2392 87.2454 76.2871 86.6707 74.5248 86.5694C73.6892 86.5227 73.3886 88.3467 72.317 86.9894C71.6751 86.1747 70.5561 86.7481 69.6571 86.6707C68.7239 86.5894 67.7775 86.6294 66.8377 86.66C66.2565 86.68 66.0891 86.3521 65.9151 85.8694C65.6686 85.1827 65.1018 84.5601 65.0333 83.8747C64.8923 82.4627 64.7802 80.9787 65.0768 79.6174C65.235 78.8934 66.0021 78.0054 67.1436 78.0708C67.5825 78.0961 68.285 78.1148 68.4339 77.8681C69.6505 75.8588 71.5552 76.1481 73.4163 76.1747C75.6096 76.2054 77.8042 76.1814 79.9975 76.1814C80.7818 76.1814 81.6385 76.3827 82.3266 76.1241C82.983 75.8761 83.3889 75.0067 84.3063 75.1801C84.3432 75.1881 84.5475 74.5747 84.5265 74.5641C82.954 73.8134 81.3907 73.0347 79.7695 72.4081C79.2383 72.2041 78.628 72.364 78.0902 71.8787C77.5656 71.4054 76.7853 71.236 76.1896 70.8254C75.4593 70.3214 75.0771 69.2348 73.9093 69.4961C73.3372 68.5374 72.2854 68.8308 71.4972 68.4988C69.2235 67.5441 67.079 66.2734 64.8844 65.1267C63.967 64.6467 62.8664 64.4587 62.2811 63.4467C61.775 62.5734 60.4648 63.0734 60.0114 62.1014C58.8106 62.0694 58.1595 61.1721 57.4003 60.4294C57.1986 60.2321 56.8823 59.9987 56.6437 60.0241C55.6433 60.1281 55.2966 58.6441 54.2105 59.0467C53.6516 58.4961 53.1705 57.8094 52.5155 57.4307C51.7523 56.9894 50.8784 56.8254 50.2444 56.0681C49.269 54.9054 47.5568 54.7107 46.6513 53.3694C45.8644 52.2041 44.2247 52.2814 43.3508 51.0401C42.4545 49.7681 41.2116 48.7321 40.0635 47.6547C39.1949 46.8387 38.5925 45.6894 37.144 45.5628C36.6694 45.5214 35.8891 44.728 35.8878 44.276C35.8812 42.7094 34.4893 42.2947 33.8 41.3227C33.4388 40.8147 32.9274 40.4161 32.4845 39.9681C32.3738 39.8548 32.1642 39.7414 32.1669 39.6307C32.2011 38.1521 30.7499 37.676 30.2385 36.6227C29.9933 36.1174 29.9828 35.5027 29.5122 35.0187C29.0035 34.4961 29.333 33.4694 28.4973 33.0774C28.5448 31.0881 26.8115 29.4667 27.3493 27.3747C27.6406 26.2441 26.9301 25.3067 26.1524 25.0854C24.1938 24.5267 23.2487 22.8654 21.9227 21.6361C20.1565 19.9987 20.2039 19.94 16.852 19.076C16.3485 18.9467 16.106 18.7361 16.0414 18.1694C15.8806 16.7627 14.4544 16.3347 13.7677 15.3227C12.4325 15.5027 11.9843 14.2801 11.1632 13.6441C10.5766 13.1894 10.1865 12.5907 9.34423 12.3267C8.40312 12.0321 7.68739 10.6841 6.80032 10.6014C5.31748 10.4641 6.0266 9.0854 5.2977 8.65207C4.78761 8.34807 4.6189 7.53069 3.82541 7.64536C3.84914 6.98669 3.53543 6.66941 2.8843 6.69341C2.90803 6.03474 2.59432 5.71739 1.94319 5.74139Z" fill="#231F20"/>
</svg>
