<svg width="91" height="89" viewBox="0 0 91 89" fill="none" xmlns="http://www.w3.org/2000/svg">
<path d="M24.8155 40.5933C24.6065 40.7004 24.4055 40.8418 24.182 40.9C24.0771 40.9285 23.8586 40.8283 23.8238 40.7337C23.7885 40.6404 23.8845 40.4165 23.9809 40.3681C24.1877 40.2659 24.43 40.2205 24.6617 40.2026C24.7006 40.1997 24.7597 40.4483 23.4202 40.5689C23.5478 40.6266 23.7467 40.6566 23.7832 40.7504C23.8185 40.8438 23.7234 41.0593 23.625 41.1185C23.3001 41.3149 22.8971 41.5607 22.8257 40.9019C22.8159 40.8128 23.212 40.6808 24.8155 40.5933ZM41.5125 54.945C41.0885 55.101 40.389 54.4914 39.8161 54.2326C35.8073 52.4214 31.7925 50.6236 27.7967 48.7861C27.1309 48.4794 26.2333 48.4331 25.9978 47.4885C26.5725 47.256 27.2494 47.1486 27.7003 46.7682C28.7547 45.8807 29.846 45.1092 31.1798 44.7334C31.6588 43.1157 33.6429 43.647 34.408 42.4244C34.5581 42.1826 34.7837 41.8873 35.0277 41.8252C37.5926 41.1719 39.4441 39.0777 41.9857 38.3466C42.7911 38.1147 43.0945 36.9273 44.1367 36.8228C44.951 36.7409 45.3245 36.0029 45.8788 35.5027C46.5336 34.9122 47.8224 34.8738 48.2358 34.2121C48.9946 32.9969 50.5283 33.4533 51.2886 32.3102C51.8345 31.4923 52.8048 30.9654 53.5796 30.2992C54.4644 29.5409 55.3411 28.7717 56.2215 28.0071C56.3318 27.9109 56.4234 27.7493 56.5467 27.7218C57.9228 27.4104 58.8321 26.25 60.0325 25.7219C61.0481 25.2754 61.6636 24.3327 62.602 23.9827C63.7743 23.5442 64.6362 22.7464 65.6308 22.086C66.5256 21.4914 67.6429 21.2398 68.6622 20.8373C69.2993 19.2472 70.9974 19.5077 72.1468 18.8106C72.2251 18.7642 72.4267 18.9254 72.5699 18.9901C72.5065 19.1338 72.4571 19.2881 72.3762 19.4224C71.9183 20.1881 71.9573 21.352 70.7344 21.5093C70.5948 21.5279 70.4155 21.6105 70.3442 21.7228C69.7007 22.7259 69.7966 24.2675 68.2642 24.6192C67.6986 25.7203 67.1155 26.812 66.5699 27.9235C65.9044 29.2803 65.5913 30.8167 63.9827 31.5925C63.5243 31.8133 63.0662 32.8475 63.5269 33.707C63.9839 34.5618 63.2431 35.1705 63.0464 35.8906C61.1446 36.5457 61.0407 38.4847 60.2486 39.9288C60.1949 40.0243 60.2864 40.2321 60.3586 40.3596C60.4071 40.4458 60.5647 40.5564 60.6304 40.5321C61.37 40.2661 62.183 40.1019 62.8139 39.667C64.0108 38.8395 65.1906 37.9458 66.2074 36.9084C67.1275 35.9719 68.4942 35.5512 69.0374 34.1377C69.2682 33.5366 70.222 33.2564 70.6103 32.6711C71.1222 31.8976 72.3496 31.9981 72.5131 30.8365C72.6822 29.6396 74.397 29.8492 74.6311 28.6422C75.7811 28.5061 75.8415 27.3622 76.4392 26.7313C77.0187 26.1184 77.7325 25.4727 78.455 25.0821C79.2345 24.6604 79.5029 24.0559 79.9328 23.4222C80.3277 22.8383 81.2241 22.5541 81.5067 21.9501C81.9362 21.0329 82.7206 20.6689 83.3502 20.0538C84.2742 19.1511 85.587 18.4958 85.9364 17.0604C87.5073 16.7787 87.545 15.2872 88.0415 14.2119C88.402 13.4314 89.0419 13.1525 89.6165 12.6717C90.2452 12.1438 90.7239 11.246 90.2774 10.168C89.6783 8.72622 89.2368 7.21835 88.727 5.73798C89.2802 4.77591 88.7992 4.3483 87.9326 4.02245C87.0522 3.69185 86.2098 3.2587 85.3505 2.87046C84.7771 2.61285 84.2049 2.3558 83.6315 2.0982C82.3502 3.34903 81.0056 1.20237 79.7175 2.17119C78.8371 1.93847 77.9715 2.10081 77.1057 2.2733C76.0987 1.10135 74.6161 2.47148 73.6751 1.70904C72.6187 0.854999 71.6679 1.92952 70.5698 1.52973C69.5843 1.17213 68.4782 2.74887 67.1005 1.95556C66.0193 1.33419 64.7489 1.85101 63.6508 2.00033C62.4219 2.16795 61.4046 0.852636 60.121 1.74904C59.8357 1.94725 58.9712 1.43688 58.4514 1.12319C57.2242 0.384714 55.6669 1.69487 54.5221 0.446039C54.4744 0.393829 53.86 0.660876 53.8168 0.850192C53.5503 2.03237 52.551 2.47458 51.7516 3.14729C49.7007 4.87255 49.732 4.8867 50.6539 7.21911C50.8909 7.81684 51.11 8.3276 51.785 8.57416C52.6675 8.89692 53.5088 9.3355 54.3669 9.72319C55.6785 8.65545 56.946 10.4766 58.2895 9.76498C59.1017 9.33462 59.6956 10.3273 60.4364 10.3232C61.0098 10.3194 61.5529 9.66814 62.1782 10.1318C63.0316 10.7656 63.8984 10.4402 64.7918 10.2904C65.0097 10.2545 65.3264 10.5509 65.5295 10.761C65.873 11.1177 65.7222 11.2336 65.2735 11.39C64.2864 11.7326 63.1498 11.9069 62.6855 13.0859C61.6341 13.1263 61.4608 14.5127 60.5415 14.607C59.0282 14.7615 58.4038 16.2609 57.0923 16.7168C55.7844 17.1714 54.5368 17.8096 53.2646 18.3665C52.8131 19.8272 51.1221 19.2823 50.2751 20.3015C49.4579 21.2859 48.427 22.1986 47.2015 22.7606C46.7996 24.4131 44.5159 23.5727 44.0746 25.1738C42.8241 25.6879 42.1403 27.1387 40.7213 27.3314C39.6895 27.4712 39.6264 28.7584 38.5927 28.9514C38.1145 29.0406 37.7818 29.9869 37.3128 30.0554C35.6776 30.2964 34.979 32.0223 33.4258 32.3588C32.6758 32.5208 31.5838 32.7284 31.3321 33.2528C30.8159 34.3236 29.8321 34.2632 29.0925 34.7482C28.4854 35.1457 27.9807 35.7033 27.3736 36.1007C26.7454 36.5134 25.851 36.6657 25.4332 37.2129C24.996 37.7879 24.4719 37.9746 23.9187 38.1583C22.1573 38.744 21.5905 40.1847 21.774 41.76C21.883 42.6869 21.4212 42.6082 20.9949 42.9428C20.2363 43.5361 19.1575 42.4909 18.8718 43.0758C18.301 44.2476 15.5367 44.3421 17.1006 46.5674C16.5365 48.1656 17.043 49.294 18.6127 49.8484C19.563 50.1843 19.2941 51.6531 20.4459 51.7354C20.6994 52.5932 21.1394 53.3001 20.9621 54.3751C20.6923 56.0129 22.1609 57.1889 23.1894 58.0668C24.4561 59.1474 26.2654 59.5778 27.8408 60.2896C29.6881 59.496 31.0659 60.8122 32.5875 61.4106C34.0465 61.9836 35.4586 62.6829 36.8843 63.3446C36.9957 63.3964 37.0697 63.5817 37.1128 63.7195C37.145 63.8231 37.1343 64.0271 37.0783 64.0558C36.7989 64.1982 36.4992 64.295 36.2062 64.4094C34.5945 65.032 32.7447 65.3441 31.4418 66.369C30.1903 67.353 28.8556 67.9108 27.4747 68.5077C26.647 68.8653 26.3912 70.0232 25.3331 70.0591C24.2831 70.0929 23.9381 71.1359 23.192 71.6063C22.1874 72.2403 21.4522 73.2122 20.1842 73.5403C18.7383 73.9151 17.4083 74.5569 16.2181 75.6635C15.1573 76.6503 13.2225 76.3996 12.3761 77.9536C10.7639 78.5774 9.15347 79.2006 7.54301 79.8237C6.95629 80.0507 6.36477 80.2624 5.78777 80.5099C5.51602 80.6252 5.12837 80.7479 5.03883 80.9703C4.52852 82.2307 3.14859 81.9329 2.35164 82.5935C1.91415 82.9566 1.64783 83.4715 1.08913 83.8149C0.0119249 84.476 -0.217927 85.4674 0.165267 86.5546C0.376308 87.1523 0.653117 87.7286 0.825059 88.3363C1.06509 89.1822 1.53094 88.6012 1.84256 88.4938C2.57279 88.2425 3.23517 88.8806 4.05288 88.441C4.98244 87.941 5.89105 89.5417 7.08703 88.6933C7.83357 88.1632 8.81919 87.9777 9.69841 87.6375C11.3089 87.0143 12.877 86.2027 14.5417 85.8129C16.8589 85.2696 18.3856 83.2928 20.6259 82.6885C21.0799 81.4902 22.325 81.5081 23.1842 80.9355C24.0451 80.3621 24.6616 79.4724 25.7815 79.2249C26.8148 78.9966 27.2239 77.7855 28.3502 77.4678C29.2946 77.2023 30.0203 76.1211 30.9644 75.8759C32.2457 75.5436 32.6337 74.1125 33.9606 73.8797C35.0212 73.6944 36.0253 73.1464 37.0416 72.7279C37.8712 72.3857 38.1281 71.2284 39.1845 71.18C40.5295 71.1189 40.8815 69.5109 42.1954 69.2488C43.408 69.0067 44.5617 68.4211 45.7124 67.9203C46.251 67.6846 47.0129 67.7572 47.2414 67.0077C47.5458 66.0076 48.4196 65.1991 47.9389 63.9306C47.6508 63.1739 47.8445 63.098 48.6102 62.4918C50.0508 61.3509 50.2113 60.8436 49.7664 59.4481C49.3216 58.0526 48.7425 56.8564 47.151 56.482M59.5055 37.2829C73.3741 18.9475 73.1731 19.0889 72.9496 19.1471C72.8446 19.1756 72.6975 19.0477 72.5699 18.9901C72.6275 18.8598 72.652 18.6636 72.7479 18.6164C72.9553 18.5129 73.1976 18.4676 73.4293 18.4497C73.4681 18.4467 73.5273 18.6954 59.5055 37.2829Z" fill="#231F20"/>
</svg>
